<svg width="24" height="24" viewBox="0 0 24 24" fill="none" xmlns="http://www.w3.org/2000/svg">
<path d="M3.31665 23.2819C3.77975 23.7451 4.39477 24 5.04899 24C5.70322 24 6.31824 23.7451 6.78134 23.2819L12.0935 17.9688C12.9733 18.2402 13.889 18.3778 14.8097 18.3768C16.0165 18.3805 17.212 18.1447 18.327 17.683C19.442 17.2213 20.4543 16.5429 21.3054 15.6871C22.5902 14.4057 23.4659 12.7718 23.8219 10.9923C24.1778 9.21286 23.9978 7.36775 23.3048 5.6906L22.6065 3.9898L17.407 9.18902L14.8085 6.58879L20.0067 1.38957L18.305 0.689889C17.1947 0.232748 16.0054 -0.00165494 14.8048 8.79476e-06C12.3508 8.79476e-06 10.0439 0.955793 8.31032 2.69091C7.12559 3.87193 6.28669 5.35478 5.88457 6.9787C5.48244 8.60263 5.53242 10.3057 6.02911 11.9032L0.716902 17.2164C0.257845 17.6761 0 18.2993 0 18.949C0 19.5988 0.257845 20.222 0.716902 20.6817L3.31665 23.2819ZM8.88858 12.5098L8.5774 11.7549C8.06855 10.5251 7.93617 9.17188 8.19702 7.86672C8.45787 6.56157 9.10022 5.36324 10.0427 4.42357C10.743 3.71852 11.5917 3.17838 12.5269 2.84243C13.4621 2.50647 14.4604 2.38313 15.4492 2.48137L11.3413 6.59002L17.4045 12.6556L21.5149 8.54448C21.6107 9.53409 21.4861 10.5327 21.1499 11.4683C20.8137 12.404 20.2743 13.2535 19.5706 13.9557C17.6716 15.855 14.7141 16.4395 12.2393 15.4212L11.4859 15.1088L5.04899 21.5493H5.05022L5.04899 22.7746V21.5493L2.44925 18.949L8.88858 12.5098Z" fill="black"/>
</svg>
