<svg width="24" height="24" viewBox="0 0 24 24" fill="none" xmlns="http://www.w3.org/2000/svg">
<path d="M23.7273 10.2857H14.1818C13.3138 10.2857 12.4814 10.0148 11.8677 9.53256C11.2539 9.05032 10.9091 8.39627 10.9091 7.71429V0.214286C10.9091 0.157454 10.8804 0.102949 10.8292 0.0627629C10.7781 0.0225765 10.7087 0 10.6364 0H4.36364C3.20633 0 2.09642 0.361224 1.27808 1.00421C0.459739 1.64719 0 2.51926 0 3.42857V20.5714C0 21.4807 0.459739 22.3528 1.27808 22.9958C2.09642 23.6388 3.20633 24 4.36364 24H19.6364C20.7937 24 21.9036 23.6388 22.7219 22.9958C23.5403 22.3528 24 21.4807 24 20.5714V10.5C24 10.4432 23.9713 10.3887 23.9201 10.3485C23.869 10.3083 23.7996 10.2857 23.7273 10.2857ZM17.4545 18.8571H6.54545C6.25613 18.8571 5.97865 18.7668 5.77407 18.6061C5.56948 18.4453 5.45455 18.2273 5.45455 18C5.45455 17.7727 5.56948 17.5547 5.77407 17.3939C5.97865 17.2332 6.25613 17.1429 6.54545 17.1429H17.4545C17.7439 17.1429 18.0214 17.2332 18.2259 17.3939C18.4305 17.5547 18.5455 17.7727 18.5455 18C18.5455 18.2273 18.4305 18.4453 18.2259 18.6061C18.0214 18.7668 17.7439 18.8571 17.4545 18.8571ZM17.4545 14.5714H6.54545C6.25613 14.5714 5.97865 14.4811 5.77407 14.3204C5.56948 14.1596 5.45455 13.9416 5.45455 13.7143C5.45455 13.487 5.56948 13.2689 5.77407 13.1082C5.97865 12.9474 6.25613 12.8571 6.54545 12.8571H17.4545C17.7439 12.8571 18.0214 12.9474 18.2259 13.1082C18.4305 13.2689 18.5455 13.487 18.5455 13.7143C18.5455 13.9416 18.4305 14.1596 18.2259 14.3204C18.0214 14.4811 17.7439 14.5714 17.4545 14.5714Z" fill="black"/>
<path d="M23.1286 8.38875L13.3234 0.684645C13.3043 0.669752 13.2801 0.65962 13.2537 0.655522C13.2273 0.651425 13.2 0.653546 13.1752 0.661619C13.1503 0.669691 13.1291 0.683354 13.1141 0.700891C13.0991 0.718428 13.091 0.739056 13.0909 0.760181V7.71429C13.0909 7.94162 13.2058 8.15963 13.4104 8.32038C13.615 8.48113 13.8925 8.57143 14.1818 8.57143H23.0325C23.0594 8.57134 23.0856 8.56501 23.108 8.55323C23.1303 8.54145 23.1477 8.52475 23.1579 8.50523C23.1682 8.48571 23.1709 8.46423 23.1657 8.44351C23.1605 8.42279 23.1476 8.40373 23.1286 8.38875Z" fill="black"/>
</svg>
