<svg width="24" height="24" viewBox="0 0 24 24" fill="none" xmlns="http://www.w3.org/2000/svg">
<path d="M12 7.82609C11.1523 7.82609 10.3236 8.07088 9.61878 8.52952C8.91394 8.98815 8.36458 9.64003 8.04017 10.4027C7.71577 11.1654 7.63089 12.0046 7.79627 12.8143C7.96165 13.624 8.36986 14.3677 8.96928 14.9514C9.5687 15.5351 10.3324 15.9327 11.1638 16.0937C11.9952 16.2548 12.857 16.1721 13.6402 15.8562C14.4234 15.5403 15.0928 15.0053 15.5638 14.3189C16.0347 13.6325 16.2861 12.8255 16.2861 12C16.2827 10.894 15.83 9.83429 15.027 9.05225C14.2239 8.2702 13.1357 7.82939 12 7.82609ZM21.2537 12C21.2514 12.39 21.2221 12.7794 21.1658 13.1656L23.7744 15.1544C23.888 15.2458 23.9646 15.3735 23.9904 15.5148C24.0162 15.656 23.9896 15.8016 23.9153 15.9256L21.4476 20.0744C21.3726 20.1973 21.2555 20.2904 21.1169 20.3374C20.9784 20.3845 20.8272 20.3824 20.69 20.3317L17.6228 19.1317C16.9841 19.6106 16.2852 20.0081 15.543 20.3144L15.0844 23.4856C15.0587 23.6276 14.9832 23.7566 14.8707 23.8504C14.7582 23.9442 14.6158 23.9971 14.4677 24H9.53229C9.38691 23.9972 9.24678 23.9466 9.13478 23.8563C9.02278 23.766 8.94553 23.6414 8.91563 23.5028L8.45701 20.3317C7.71277 20.0289 7.01333 19.6307 6.37719 19.1478L3.30996 20.3478C3.17285 20.3986 3.02173 20.4008 2.88318 20.3538C2.74462 20.3069 2.6275 20.2139 2.5524 20.0911L0.0846817 15.9428C0.0104027 15.8189 -0.0162082 15.6733 0.0096046 15.532C0.0354174 15.3907 0.111972 15.263 0.225587 15.1717L2.83421 13.1828C2.77857 12.7908 2.74922 12.3957 2.74634 12C2.74857 11.61 2.77793 11.2206 2.83421 10.8344L0.225587 8.84556C0.111972 8.75421 0.0354174 8.62648 0.0096046 8.48522C-0.0162082 8.34395 0.0104027 8.19835 0.0846817 8.07443L2.5524 3.92557C2.62741 3.80274 2.7445 3.70962 2.88307 3.66257C3.02163 3.61553 3.17279 3.61757 3.30996 3.66835L6.37719 4.86835C7.01588 4.3894 7.71482 3.99192 8.45701 3.68557L8.91563 0.514435C8.94129 0.372391 9.01682 0.243436 9.12929 0.149606C9.24177 0.0557758 9.38421 0.00289499 9.53229 0H14.4677C14.6131 0.00275558 14.7532 0.0534215 14.8652 0.143727C14.9772 0.234032 15.0545 0.358643 15.0844 0.497217L15.543 3.66835C16.2882 3.97094 16.9885 4.36907 17.6255 4.85217L20.69 3.65217C20.8271 3.60135 20.9783 3.59923 21.1168 3.64618C21.2554 3.69313 21.3725 3.78614 21.4476 3.90887L23.9153 8.05774C23.9896 8.18166 24.0162 8.32726 23.9904 8.46852C23.9646 8.60979 23.888 8.73751 23.7744 8.82887L21.1658 10.8177C21.2214 11.2095 21.2508 11.6045 21.2537 12Z" fill="black"/>
</svg>
